<?xml version="1.0" encoding="utf-8"?>
<!-- Generator: Adobe Illustrator 16.0.0, SVG Export Plug-In . SVG Version: 6.00 Build 0)  -->
<!DOCTYPE svg PUBLIC "-//W3C//DTD SVG 1.1//EN" "http://www.w3.org/Graphics/SVG/1.1/DTD/svg11.dtd">
<svg version="1.1" id="Layer_1" xmlns="http://www.w3.org/2000/svg" xmlns:xlink="http://www.w3.org/1999/xlink" x="0px" y="0px"
	 width="192.225px" height="60.234px" viewBox="0 0 192.225 60.234" enable-background="new 0 0 192.225 60.234"
	 xml:space="preserve">
<g id="Layer_3" display="none">
	<rect x="0" y="0" display="inline" width="227.214" height="85.039"/>
</g>
<g id="Layer_5" display="none">
</g>
<g id="Layer_4" display="none">
	<rect x="6.201" y="35.433" display="inline" fill="#FF0000" width="193.109" height="29.233"/>
</g>
<g id="Layer_1_1_" opacity="0.2">
	<g>
		<g>
			<path fill="#FFFFFF" d="M21.26,1.001c11.171,0,20.26,9.088,20.26,20.26V43.57v0.414l0.293,0.293l6.075,6.077l-8.608,8.607
				l-9.933-9.936V21.261c0-4.459-3.628-8.087-8.087-8.087s-8.087,3.628-8.087,8.087V50.38H1V21.261
				C1,10.09,10.089,1.001,21.26,1.001 M21.26,0.001C9.537,0.001,0,9.539,0,21.261V51.38h14.173V21.261
				c0-3.908,3.179-7.087,7.087-7.087s7.087,3.179,7.087,7.087V49.44L39.28,60.375l10.022-10.021L42.52,43.57V21.261
				C42.52,9.538,32.983,0.001,21.26,0.001L21.26,0.001z"/>
		</g>
		<g>
			<path fill="#FFFFFF" d="M66.437,1c5.403,0,10.488,2.11,14.319,5.941c3.831,3.831,5.94,8.916,5.94,14.319v17.719
				c0,11.171-9.088,20.259-20.259,20.259h-2.521L46.177,41.499V21.26C46.177,10.089,55.265,1,66.437,1 M68.671,46.778l0.604-0.228
				c3.139-1.181,5.249-4.224,5.249-7.571l0.001-17.719c0-4.459-3.628-8.087-8.087-8.087s-8.087,3.628-8.087,8.087v14.782v0.414
				l0.293,0.293l9.572,9.572L68.671,46.778 M66.437,0c-11.723,0-21.26,9.537-21.26,21.26v20.653l18.324,18.324h2.936
				c11.724,0,21.259-9.536,21.259-21.259V21.26C87.697,9.537,78.16,0,66.437,0L66.437,0z M68.922,45.615l-9.572-9.572V21.26
				c0-3.908,3.179-7.087,7.087-7.087s7.087,3.179,7.087,7.087l-0.001,17.719C73.523,42.012,71.607,44.605,68.922,45.615
				L68.922,45.615z"/>
		</g>
		<g>
			<path fill="#FFFFFF" d="M103.527,1.886v24.411v2.414l1.707-1.707l16.429-16.427l8.608,8.606l-17.313,17.314l-0.707,0.707
				l0.707,0.707l7.972,7.972l0.293,0.293h0.414h10.238v12.174h-15.695l-11.83-11.831l-0.707-0.707l-0.707,0.707L91.354,58.101V1.886
				H103.527 M104.527,0.886H90.354v59.629l13.288-13.288l12.123,12.124h17.109V45.177h-11.238l-7.972-7.972l18.021-18.021
				L121.662,9.163l-17.136,17.134V0.886L104.527,0.886z"/>
		</g>
		<g>
			<path fill="#FFFFFF" d="M154.134,1c11.171,0,20.26,9.088,20.26,20.259v17.72c0,11.171-9.089,20.259-20.26,20.259h-2.521
				l-17.738-17.738V21.26C133.874,10.089,142.963,1,154.134,1 M156.369,46.778l0.603-0.227c3.14-1.18,5.249-4.223,5.25-7.572V21.26
				c0-4.459-3.628-8.087-8.087-8.087s-8.087,3.628-8.087,8.087v14.782v0.414l0.293,0.293l9.572,9.572L156.369,46.778 M154.134,0
				c-11.723,0-21.26,9.537-21.26,21.26v20.653l18.324,18.324h2.936c11.723,0,21.26-9.536,21.26-21.259v-17.72
				C175.394,9.537,165.856,0,154.134,0L154.134,0z M156.62,45.615l-9.572-9.572V21.26c0-3.908,3.179-7.087,7.087-7.087
				s7.087,3.179,7.087,7.087v17.719h-0.001C161.221,42.012,159.305,44.606,156.62,45.615L156.62,45.615z"/>
		</g>
		<g>
			<path fill="#FFFFFF" d="M191.226,1.886v56.466h-12.174V1.886H191.226 M192.226,0.886h-14.174v58.466h14.174V0.886L192.226,0.886z
				"/>
		</g>
	</g>
</g>
<g id="Layer_2">
</g>
</svg>
