<?xml version="1.0" encoding="utf-8"?>
<!-- Generator: Adobe Illustrator 16.0.0, SVG Export Plug-In . SVG Version: 6.00 Build 0)  -->
<!DOCTYPE svg PUBLIC "-//W3C//DTD SVG 1.1//EN" "http://www.w3.org/Graphics/SVG/1.1/DTD/svg11.dtd">
<svg version="1.1" xmlns="http://www.w3.org/2000/svg" xmlns:xlink="http://www.w3.org/1999/xlink" x="0px" y="0px"
	 width="192.225px" height="60.235px" viewBox="0 0 192.225 60.235" enable-background="new 0 0 192.225 60.235"
	 xml:space="preserve">
<g id="Layer_3" display="none">
	<rect display="inline" width="227.214" height="85.039"/>
</g>
<g id="Layer_5" display="none">
</g>
<g id="Layer_4" display="none">
	<rect x="6.201" y="35.433" display="inline" fill="#FF0000" width="193.11" height="29.233"/>
</g>
<g id="Layer_1">
	<g>
		<path d="M42.52,21.261c0-11.723-9.537-21.26-21.26-21.26S0,9.539,0,21.261V51.38h14.173V21.261c0-3.908,3.179-7.087,7.087-7.087
			s7.087,3.179,7.087,7.087V49.44L39.28,60.375l10.022-10.021L42.52,43.57V21.261z"/>
		<path d="M66.437,0c-11.723,0-21.26,9.537-21.26,21.26l0,20.653l18.324,18.325h2.936c11.723,0,21.259-9.537,21.259-21.259l0-17.719
			C87.697,9.537,78.16,0,66.437,0z M73.523,38.979c0,3.033-1.916,5.626-4.601,6.635l-9.572-9.572l0-14.782
			c0-3.908,3.179-7.087,7.087-7.087s7.087,3.179,7.087,7.087L73.523,38.979z"/>
		<polygon points="113.664,37.205 131.685,19.184 121.662,9.163 104.527,26.297 104.527,0.886 90.354,0.886 90.354,60.515 
			103.642,47.227 115.765,59.351 132.874,59.351 132.874,45.177 121.636,45.177 		"/>
		<path d="M154.134,0c-11.723,0-21.26,9.537-21.26,21.26l0,20.653l18.324,18.325h2.936c11.723,0,21.26-9.537,21.26-21.259V21.259
			C175.394,9.537,165.856,0,154.134,0z M161.221,38.979c0,3.033-1.916,5.627-4.601,6.635l-9.572-9.572l0-14.782
			c0-3.908,3.179-7.087,7.087-7.087s7.087,3.179,7.087,7.087V38.979z"/>
		<rect x="178.052" y="0.886" width="14.174" height="58.466"/>
	</g>
</g>
<g id="Layer_2">
	<g>
	</g>
	<g>
	</g>
	<g>
	</g>
	<g>
	</g>
	<g>
	</g>
	<g>
	</g>
</g>
</svg>
