<?xml version="1.0" encoding="utf-8"?>
<!-- Generator: Adobe Illustrator 16.0.0, SVG Export Plug-In . SVG Version: 6.00 Build 0)  -->
<!DOCTYPE svg PUBLIC "-//W3C//DTD SVG 1.1//EN" "http://www.w3.org/Graphics/SVG/1.1/DTD/svg11.dtd">
<svg version="1.1" id="Layer_1" xmlns="http://www.w3.org/2000/svg" xmlns:xlink="http://www.w3.org/1999/xlink" x="0px" y="0px"
	 width="60.23px" height="192.22px" viewBox="65.997 -65.992 60.23 192.22" enable-background="new 65.997 -65.992 60.23 192.22"
	 xml:space="preserve">
<g id="Layer_3" display="none">
	<rect x="0" y="0" display="inline" width="227.214" height="85.039"/>
</g>
<g id="Layer_5" display="none">
</g>
<g id="Layer_4" display="none">
	<rect x="6.201" y="35.433" display="inline" fill="#FF0000" width="193.109" height="29.233"/>
</g>
<g id="Layer_1_1_" opacity="0.2">
	<g>
		<g>
			<path fill="#FFFFFF" d="M116.209,78.483l8.607,8.608l-9.936,9.933H87.116c-4.459,0-8.087,3.628-8.087,8.087
				s3.628,8.087,8.087,8.087h29.119v12.173H87.116c-11.171,0-20.26-9.089-20.26-20.26s9.088-20.26,20.26-20.26h22.309h0.414
				l0.293-0.293L116.209,78.483 M116.209,77.069l-6.784,6.782H87.116c-11.723,0-21.26,9.537-21.26,21.26s9.538,21.26,21.26,21.26
				h30.119v-14.173H87.116c-3.908,0-7.087-3.179-7.087-7.087s3.179-7.087,7.087-7.087h28.179l10.936-10.933L116.209,77.069
				L116.209,77.069z"/>
		</g>
		<g>
			<path fill="#FFFFFF" d="M87.114,39.675c0,0,0.001,0,0.002,0l0,0h17.719c11.171,0,20.259,9.088,20.259,20.259v2.521
				l-17.738,17.738H87.115c-11.171,0-20.26-9.089-20.26-20.26c0-5.403,2.11-10.488,5.941-14.319
				C76.628,41.784,81.712,39.675,87.114,39.675 M87.115,68.021h14.782h0.414l0.293-0.293l9.572-9.572l0.456-0.456l-0.228-0.604
				c-1.181-3.139-4.224-5.248-7.571-5.248l-17.719-0.001c-4.459,0-8.087,3.628-8.087,8.087S82.656,68.021,87.115,68.021
				 M87.115,38.675c-11.723-0.001-21.26,9.535-21.26,21.259c0,11.723,9.537,21.26,21.26,21.26h20.653l18.324-18.324v-2.936
				c0-11.724-9.536-21.259-21.259-21.259H87.115L87.115,38.675z M87.115,67.021c-3.908,0-7.087-3.179-7.087-7.087
				s3.179-7.087,7.087-7.087l17.719,0.001c3.033,0,5.626,1.916,6.636,4.601l-9.572,9.572H87.115L87.115,67.021z"/>
		</g>
		<g>
			<path fill="#FFFFFF" d="M124.206-5.504v15.695l-11.831,11.83l-0.707,0.707l0.707,0.707l11.581,11.581H67.741V22.844h24.411h2.414
				l-1.707-1.707L76.433,4.708L85.039-3.9l17.314,17.313l0.707,0.707l0.707-0.707l7.972-7.972l0.293-0.293V4.735V-5.504H124.206
				 M125.206-6.504h-14.174V4.735l-7.972,7.972L85.039-5.314L75.019,4.708l17.134,17.136H66.741v14.173h59.629l-13.288-13.288
				l12.124-12.123V-6.504L125.206-6.504z"/>
		</g>
		<g>
			<path fill="#FFFFFF" d="M104.834-48.023c11.171,0,20.259,9.088,20.259,20.26v2.521L107.355-7.504H87.115
				c-11.171,0-20.26-9.088-20.26-20.26s9.088-20.26,20.259-20.26H104.834 M87.115-19.677h14.782h0.414l0.293-0.293l9.572-9.572
				l0.456-0.456l-0.227-0.603c-1.18-3.139-4.223-5.249-7.572-5.25H87.115c-4.459,0-8.087,3.628-8.087,8.087
				S82.656-19.677,87.115-19.677 M104.834-49.023h-17.72c-11.722,0-21.259,9.538-21.259,21.26c0,11.723,9.537,21.26,21.26,21.26
				h20.653l18.324-18.324v-2.936C126.093-39.486,116.557-49.023,104.834-49.023L104.834-49.023z M87.115-20.677
				c-3.908,0-7.087-3.179-7.087-7.087s3.179-7.087,7.087-7.087h17.719v0.001c3.033,0,5.627,1.916,6.636,4.601l-9.572,9.572H87.115
				L87.115-20.677z"/>
		</g>
		<g>
			<path fill="#FFFFFF" d="M124.207-64.855v12.174H67.741v-12.174H124.207 M125.207-65.855H66.741v14.174h58.466V-65.855
				L125.207-65.855z"/>
		</g>
	</g>
</g>
<g id="Layer_2">
</g>
</svg>
