<?xml version="1.0" encoding="utf-8"?>
<!-- Generator: Adobe Illustrator 16.0.0, SVG Export Plug-In . SVG Version: 6.00 Build 0)  -->
<!DOCTYPE svg PUBLIC "-//W3C//DTD SVG 1.1//EN" "http://www.w3.org/Graphics/SVG/1.1/DTD/svg11.dtd">
<svg version="1.1" id="Layer_1" xmlns="http://www.w3.org/2000/svg" xmlns:xlink="http://www.w3.org/1999/xlink" x="0px" y="0px"
	 width="192.225px" height="60.234px" viewBox="0 0 192.225 60.234" enable-background="new 0 0 192.225 60.234"
	 xml:space="preserve">
<g id="Layer_3" display="none">
	<rect x="0" y="0" display="inline" width="227.214" height="85.039"/>
</g>
<g id="Layer_5" display="none">
</g>
<g id="Layer_4" display="none">
	<rect x="6.201" y="35.433" display="inline" fill="#FF0000" width="193.109" height="29.233"/>
</g>
<g id="Layer_1_1_" opacity="0.1">
	<g>
		<path fill="#FFFFFF" d="M42.52,21.261c0-11.723-9.537-21.26-21.26-21.26S0,9.539,0,21.261V51.38h14.173V21.261
			c0-3.908,3.179-7.087,7.087-7.087s7.087,3.179,7.087,7.087V49.44L39.28,60.375l10.022-10.021L42.52,43.57V21.261z"/>
		<path fill="#FFFFFF" d="M66.437,0c-11.723,0-21.26,9.537-21.26,21.26v20.653l18.324,18.324h2.936
			c11.724,0,21.259-9.536,21.259-21.259V21.26C87.697,9.537,78.16,0,66.437,0z M73.523,38.979c0,3.033-1.916,5.626-4.601,6.636
			l-9.572-9.572V21.26c0-3.908,3.179-7.087,7.087-7.087s7.087,3.179,7.087,7.087L73.523,38.979z"/>
		<polygon fill="#FFFFFF" points="113.664,37.205 131.685,19.184 121.662,9.163 104.527,26.297 104.527,0.886 90.354,0.886 
			90.354,60.515 103.642,47.227 115.765,59.351 132.874,59.351 132.874,45.177 121.636,45.177 		"/>
		<path fill="#FFFFFF" d="M154.134,0c-11.723,0-21.26,9.537-21.26,21.26v20.653l18.324,18.324h2.936
			c11.723,0,21.26-9.536,21.26-21.259v-17.72C175.394,9.537,165.856,0,154.134,0z M161.221,38.979c0,3.033-1.916,5.627-4.601,6.636
			l-9.572-9.572V21.26c0-3.908,3.179-7.087,7.087-7.087s7.087,3.179,7.087,7.087L161.221,38.979L161.221,38.979z"/>
		<rect x="178.052" y="0.886" fill="#FFFFFF" width="14.174" height="58.466"/>
	</g>
</g>
<g id="Layer_2">
</g>
</svg>
